<svg width="128" height="128" xmlns="http://www.w3.org/2000/svg"><path d="M0 0 H6.095238095238095 V6.095238095238095 H0 ZM6.095238095238095 0 H12.19047619047619 V6.095238095238095 H6.095238095238095 ZM12.19047619047619 0 H18.285714285714285 V6.095238095238095 H12.19047619047619 ZM18.285714285714285 0 H24.38095238095238 V6.095238095238095 H18.285714285714285 ZM24.38095238095238 0 H30.476190476190474 V6.095238095238095 H24.38095238095238 ZM30.476190476190474 0 H36.57142857142857 V6.095238095238095 H30.476190476190474 ZM36.57142857142857 0 H42.666666666666664 V6.095238095238095 H36.57142857142857 ZM67.04761904761904 0 H73.14285714285714 V6.095238095238095 H67.04761904761904 ZM85.33333333333333 0 H91.42857142857142 V6.095238095238095 H85.33333333333333 ZM91.42857142857142 0 H97.52380952380952 V6.095238095238095 H91.42857142857142 ZM97.52380952380952 0 H103.61904761904762 V6.095238095238095 H97.52380952380952 ZM103.61904761904762 0 H109.71428571428572 V6.095238095238095 H103.61904761904762 ZM109.71428571428571 0 H115.8095238095238 V6.095238095238095 H109.71428571428571 ZM115.8095238095238 0 H121.9047619047619 V6.095238095238095 H115.8095238095238 ZM121.9047619047619 0 H128 V6.095238095238095 H121.9047619047619 ZM0 6.095238095238095 H6.095238095238095 V12.19047619047619 H0 ZM36.57142857142857 6.095238095238095 H42.666666666666664 V12.19047619047619 H36.57142857142857 ZM48.76190476190476 6.095238095238095 H54.857142857142854 V12.19047619047619 H48.76190476190476 ZM60.95238095238095 6.095238095238095 H67.04761904761904 V12.19047619047619 H60.95238095238095 ZM67.04761904761904 6.095238095238095 H73.14285714285714 V12.19047619047619 H67.04761904761904 ZM85.33333333333333 6.095238095238095 H91.42857142857142 V12.19047619047619 H85.33333333333333 ZM121.9047619047619 6.095238095238095 H128 V12.19047619047619 H121.9047619047619 ZM0 12.19047619047619 H6.095238095238095 V18.285714285714285 H0 ZM12.19047619047619 12.19047619047619 H18.285714285714285 V18.285714285714285 H12.19047619047619 ZM18.285714285714285 12.19047619047619 H24.38095238095238 V18.285714285714285 H18.285714285714285 ZM24.38095238095238 12.19047619047619 H30.476190476190474 V18.285714285714285 H24.38095238095238 ZM36.57142857142857 12.19047619047619 H42.666666666666664 V18.285714285714285 H36.57142857142857 ZM54.857142857142854 12.19047619047619 H60.95238095238095 V18.285714285714285 H54.857142857142854 ZM60.95238095238095 12.19047619047619 H67.04761904761904 V18.285714285714285 H60.95238095238095 ZM67.04761904761904 12.19047619047619 H73.14285714285714 V18.285714285714285 H67.04761904761904 ZM85.33333333333333 12.19047619047619 H91.42857142857142 V18.285714285714285 H85.33333333333333 ZM97.52380952380952 12.19047619047619 H103.61904761904762 V18.285714285714285 H97.52380952380952 ZM103.61904761904762 12.19047619047619 H109.71428571428572 V18.285714285714285 H103.61904761904762 ZM109.71428571428571 12.19047619047619 H115.8095238095238 V18.285714285714285 H109.71428571428571 ZM121.9047619047619 12.19047619047619 H128 V18.285714285714285 H121.9047619047619 ZM0 18.285714285714285 H6.095238095238095 V24.38095238095238 H0 ZM12.19047619047619 18.285714285714285 H18.285714285714285 V24.38095238095238 H12.19047619047619 ZM18.285714285714285 18.285714285714285 H24.38095238095238 V24.38095238095238 H18.285714285714285 ZM24.38095238095238 18.285714285714285 H30.476190476190474 V24.38095238095238 H24.38095238095238 ZM36.57142857142857 18.285714285714285 H42.666666666666664 V24.38095238095238 H36.57142857142857 ZM67.04761904761904 18.285714285714285 H73.14285714285714 V24.38095238095238 H67.04761904761904 ZM73.14285714285714 18.285714285714285 H79.23809523809524 V24.38095238095238 H73.14285714285714 ZM85.33333333333333 18.285714285714285 H91.42857142857142 V24.38095238095238 H85.33333333333333 ZM97.52380952380952 18.285714285714285 H103.61904761904762 V24.38095238095238 H97.52380952380952 ZM103.61904761904762 18.285714285714285 H109.71428571428572 V24.38095238095238 H103.61904761904762 ZM109.71428571428571 18.285714285714285 H115.8095238095238 V24.38095238095238 H109.71428571428571 ZM121.9047619047619 18.285714285714285 H128 V24.38095238095238 H121.9047619047619 ZM0 24.38095238095238 H6.095238095238095 V30.476190476190474 H0 ZM12.19047619047619 24.38095238095238 H18.285714285714285 V30.476190476190474 H12.19047619047619 ZM18.285714285714285 24.38095238095238 H24.38095238095238 V30.476190476190474 H18.285714285714285 ZM24.38095238095238 24.38095238095238 H30.476190476190474 V30.476190476190474 H24.38095238095238 ZM36.57142857142857 24.38095238095238 H42.666666666666664 V30.476190476190474 H36.57142857142857 ZM48.76190476190476 24.38095238095238 H54.857142857142854 V30.476190476190474 H48.76190476190476 ZM54.857142857142854 24.38095238095238 H60.95238095238095 V30.476190476190474 H54.857142857142854 ZM67.04761904761904 24.38095238095238 H73.14285714285714 V30.476190476190474 H67.04761904761904 ZM73.14285714285714 24.38095238095238 H79.23809523809524 V30.476190476190474 H73.14285714285714 ZM85.33333333333333 24.38095238095238 H91.42857142857142 V30.476190476190474 H85.33333333333333 ZM97.52380952380952 24.38095238095238 H103.61904761904762 V30.476190476190474 H97.52380952380952 ZM103.61904761904762 24.38095238095238 H109.71428571428572 V30.476190476190474 H103.61904761904762 ZM109.71428571428571 24.38095238095238 H115.8095238095238 V30.476190476190474 H109.71428571428571 ZM121.9047619047619 24.38095238095238 H128 V30.476190476190474 H121.9047619047619 ZM0 30.476190476190474 H6.095238095238095 V36.57142857142857 H0 ZM36.57142857142857 30.476190476190474 H42.666666666666664 V36.57142857142857 H36.57142857142857 ZM54.857142857142854 30.476190476190474 H60.95238095238095 V36.57142857142857 H54.857142857142854 ZM60.95238095238095 30.476190476190474 H67.04761904761904 V36.57142857142857 H60.95238095238095 ZM67.04761904761904 30.476190476190474 H73.14285714285714 V36.57142857142857 H67.04761904761904 ZM85.33333333333333 30.476190476190474 H91.42857142857142 V36.57142857142857 H85.33333333333333 ZM121.9047619047619 30.476190476190474 H128 V36.57142857142857 H121.9047619047619 ZM0 36.57142857142857 H6.095238095238095 V42.666666666666664 H0 ZM6.095238095238095 36.57142857142857 H12.19047619047619 V42.666666666666664 H6.095238095238095 ZM12.19047619047619 36.57142857142857 H18.285714285714285 V42.666666666666664 H12.19047619047619 ZM18.285714285714285 36.57142857142857 H24.38095238095238 V42.666666666666664 H18.285714285714285 ZM24.38095238095238 36.57142857142857 H30.476190476190474 V42.666666666666664 H24.38095238095238 ZM30.476190476190474 36.57142857142857 H36.57142857142857 V42.666666666666664 H30.476190476190474 ZM36.57142857142857 36.57142857142857 H42.666666666666664 V42.666666666666664 H36.57142857142857 ZM48.76190476190476 36.57142857142857 H54.857142857142854 V42.666666666666664 H48.76190476190476 ZM60.95238095238095 36.57142857142857 H67.04761904761904 V42.666666666666664 H60.95238095238095 ZM73.14285714285714 36.57142857142857 H79.23809523809524 V42.666666666666664 H73.14285714285714 ZM85.33333333333333 36.57142857142857 H91.42857142857142 V42.666666666666664 H85.33333333333333 ZM91.42857142857142 36.57142857142857 H97.52380952380952 V42.666666666666664 H91.42857142857142 ZM97.52380952380952 36.57142857142857 H103.61904761904762 V42.666666666666664 H97.52380952380952 ZM103.61904761904762 36.57142857142857 H109.71428571428572 V42.666666666666664 H103.61904761904762 ZM109.71428571428571 36.57142857142857 H115.8095238095238 V42.666666666666664 H109.71428571428571 ZM115.8095238095238 36.57142857142857 H121.9047619047619 V42.666666666666664 H115.8095238095238 ZM121.9047619047619 36.57142857142857 H128 V42.666666666666664 H121.9047619047619 ZM54.857142857142854 42.666666666666664 H60.95238095238095 V48.76190476190476 H54.857142857142854 ZM60.95238095238095 42.666666666666664 H67.04761904761904 V48.76190476190476 H60.95238095238095 ZM0 48.76190476190476 H6.095238095238095 V54.857142857142854 H0 ZM12.19047619047619 48.76190476190476 H18.285714285714285 V54.857142857142854 H12.19047619047619 ZM24.38095238095238 48.76190476190476 H30.476190476190474 V54.857142857142854 H24.38095238095238 ZM36.57142857142857 48.76190476190476 H42.666666666666664 V54.857142857142854 H36.57142857142857 ZM73.14285714285714 48.76190476190476 H79.23809523809524 V54.857142857142854 H73.14285714285714 ZM97.52380952380952 48.76190476190476 H103.61904761904762 V54.857142857142854 H97.52380952380952 ZM115.8095238095238 48.76190476190476 H121.9047619047619 V54.857142857142854 H115.8095238095238 ZM0 54.857142857142854 H6.095238095238095 V60.95238095238095 H0 ZM6.095238095238095 54.857142857142854 H12.19047619047619 V60.95238095238095 H6.095238095238095 ZM12.19047619047619 54.857142857142854 H18.285714285714285 V60.95238095238095 H12.19047619047619 ZM18.285714285714285 54.857142857142854 H24.38095238095238 V60.95238095238095 H18.285714285714285 ZM24.38095238095238 54.857142857142854 H30.476190476190474 V60.95238095238095 H24.38095238095238 ZM30.476190476190474 54.857142857142854 H36.57142857142857 V60.95238095238095 H30.476190476190474 ZM67.04761904761904 54.857142857142854 H73.14285714285714 V60.95238095238095 H67.04761904761904 ZM85.33333333333333 54.857142857142854 H91.42857142857142 V60.95238095238095 H85.33333333333333 ZM91.42857142857142 54.857142857142854 H97.52380952380952 V60.95238095238095 H91.42857142857142 ZM97.52380952380952 54.857142857142854 H103.61904761904762 V60.95238095238095 H97.52380952380952 ZM115.8095238095238 54.857142857142854 H121.9047619047619 V60.95238095238095 H115.8095238095238 ZM121.9047619047619 54.857142857142854 H128 V60.95238095238095 H121.9047619047619 ZM0 60.95238095238095 H6.095238095238095 V67.04761904761904 H0 ZM6.095238095238095 60.95238095238095 H12.19047619047619 V67.04761904761904 H6.095238095238095 ZM12.19047619047619 60.95238095238095 H18.285714285714285 V67.04761904761904 H12.19047619047619 ZM36.57142857142857 60.95238095238095 H42.666666666666664 V67.04761904761904 H36.57142857142857 ZM48.76190476190476 60.95238095238095 H54.857142857142854 V67.04761904761904 H48.76190476190476 ZM54.857142857142854 60.95238095238095 H60.95238095238095 V67.04761904761904 H54.857142857142854 ZM60.95238095238095 60.95238095238095 H67.04761904761904 V67.04761904761904 H60.95238095238095 ZM67.04761904761904 60.95238095238095 H73.14285714285714 V67.04761904761904 H67.04761904761904 ZM79.23809523809524 60.95238095238095 H85.33333333333334 V67.04761904761904 H79.23809523809524 ZM91.42857142857142 60.95238095238095 H97.52380952380952 V67.04761904761904 H91.42857142857142 ZM97.52380952380952 60.95238095238095 H103.61904761904762 V67.04761904761904 H97.52380952380952 ZM103.61904761904762 60.95238095238095 H109.71428571428572 V67.04761904761904 H103.61904761904762 ZM109.71428571428571 60.95238095238095 H115.8095238095238 V67.04761904761904 H109.71428571428571 ZM115.8095238095238 60.95238095238095 H121.9047619047619 V67.04761904761904 H115.8095238095238 ZM121.9047619047619 60.95238095238095 H128 V67.04761904761904 H121.9047619047619 ZM6.095238095238095 67.04761904761904 H12.19047619047619 V73.14285714285714 H6.095238095238095 ZM30.476190476190474 67.04761904761904 H36.57142857142857 V73.14285714285714 H30.476190476190474 ZM42.666666666666664 67.04761904761904 H48.76190476190476 V73.14285714285714 H42.666666666666664 ZM54.857142857142854 67.04761904761904 H60.95238095238095 V73.14285714285714 H54.857142857142854 ZM60.95238095238095 67.04761904761904 H67.04761904761904 V73.14285714285714 H60.95238095238095 ZM67.04761904761904 67.04761904761904 H73.14285714285714 V73.14285714285714 H67.04761904761904 ZM73.14285714285714 67.04761904761904 H79.23809523809524 V73.14285714285714 H73.14285714285714 ZM97.52380952380952 67.04761904761904 H103.61904761904762 V73.14285714285714 H97.52380952380952 ZM115.8095238095238 67.04761904761904 H121.9047619047619 V73.14285714285714 H115.8095238095238 ZM6.095238095238095 73.14285714285714 H12.19047619047619 V79.23809523809524 H6.095238095238095 ZM18.285714285714285 73.14285714285714 H24.38095238095238 V79.23809523809524 H18.285714285714285 ZM24.38095238095238 73.14285714285714 H30.476190476190474 V79.23809523809524 H24.38095238095238 ZM30.476190476190474 73.14285714285714 H36.57142857142857 V79.23809523809524 H30.476190476190474 ZM36.57142857142857 73.14285714285714 H42.666666666666664 V79.23809523809524 H36.57142857142857 ZM67.04761904761904 73.14285714285714 H73.14285714285714 V79.23809523809524 H67.04761904761904 ZM79.23809523809524 73.14285714285714 H85.33333333333334 V79.23809523809524 H79.23809523809524 ZM91.42857142857142 73.14285714285714 H97.52380952380952 V79.23809523809524 H91.42857142857142 ZM97.52380952380952 73.14285714285714 H103.61904761904762 V79.23809523809524 H97.52380952380952 ZM48.76190476190476 79.23809523809524 H54.857142857142854 V85.33333333333334 H48.76190476190476 ZM54.857142857142854 79.23809523809524 H60.95238095238095 V85.33333333333334 H54.857142857142854 ZM67.04761904761904 79.23809523809524 H73.14285714285714 V85.33333333333334 H67.04761904761904 ZM79.23809523809524 79.23809523809524 H85.33333333333334 V85.33333333333334 H79.23809523809524 ZM109.71428571428571 79.23809523809524 H115.8095238095238 V85.33333333333334 H109.71428571428571 ZM115.8095238095238 79.23809523809524 H121.9047619047619 V85.33333333333334 H115.8095238095238 ZM0 85.33333333333333 H6.095238095238095 V91.42857142857142 H0 ZM6.095238095238095 85.33333333333333 H12.19047619047619 V91.42857142857142 H6.095238095238095 ZM12.19047619047619 85.33333333333333 H18.285714285714285 V91.42857142857142 H12.19047619047619 ZM18.285714285714285 85.33333333333333 H24.38095238095238 V91.42857142857142 H18.285714285714285 ZM24.38095238095238 85.33333333333333 H30.476190476190474 V91.42857142857142 H24.38095238095238 ZM30.476190476190474 85.33333333333333 H36.57142857142857 V91.42857142857142 H30.476190476190474 ZM36.57142857142857 85.33333333333333 H42.666666666666664 V91.42857142857142 H36.57142857142857 ZM60.95238095238095 85.33333333333333 H67.04761904761904 V91.42857142857142 H60.95238095238095 ZM73.14285714285714 85.33333333333333 H79.23809523809524 V91.42857142857142 H73.14285714285714 ZM91.42857142857142 85.33333333333333 H97.52380952380952 V91.42857142857142 H91.42857142857142 ZM97.52380952380952 85.33333333333333 H103.61904761904762 V91.42857142857142 H97.52380952380952 ZM109.71428571428571 85.33333333333333 H115.8095238095238 V91.42857142857142 H109.71428571428571 ZM115.8095238095238 85.33333333333333 H121.9047619047619 V91.42857142857142 H115.8095238095238 ZM121.9047619047619 85.33333333333333 H128 V91.42857142857142 H121.9047619047619 ZM0 91.42857142857142 H6.095238095238095 V97.52380952380952 H0 ZM36.57142857142857 91.42857142857142 H42.666666666666664 V97.52380952380952 H36.57142857142857 ZM54.857142857142854 91.42857142857142 H60.95238095238095 V97.52380952380952 H54.857142857142854 ZM60.95238095238095 91.42857142857142 H67.04761904761904 V97.52380952380952 H60.95238095238095 ZM91.42857142857142 91.42857142857142 H97.52380952380952 V97.52380952380952 H91.42857142857142 ZM115.8095238095238 91.42857142857142 H121.9047619047619 V97.52380952380952 H115.8095238095238 ZM0 97.52380952380952 H6.095238095238095 V103.61904761904762 H0 ZM12.19047619047619 97.52380952380952 H18.285714285714285 V103.61904761904762 H12.19047619047619 ZM18.285714285714285 97.52380952380952 H24.38095238095238 V103.61904761904762 H18.285714285714285 ZM24.38095238095238 97.52380952380952 H30.476190476190474 V103.61904761904762 H24.38095238095238 ZM36.57142857142857 97.52380952380952 H42.666666666666664 V103.61904761904762 H36.57142857142857 ZM48.76190476190476 97.52380952380952 H54.857142857142854 V103.61904761904762 H48.76190476190476 ZM60.95238095238095 97.52380952380952 H67.04761904761904 V103.61904761904762 H60.95238095238095 ZM73.14285714285714 97.52380952380952 H79.23809523809524 V103.61904761904762 H73.14285714285714 ZM97.52380952380952 97.52380952380952 H103.61904761904762 V103.61904761904762 H97.52380952380952 ZM115.8095238095238 97.52380952380952 H121.9047619047619 V103.61904761904762 H115.8095238095238 ZM0 103.61904761904762 H6.095238095238095 V109.71428571428572 H0 ZM12.19047619047619 103.61904761904762 H18.285714285714285 V109.71428571428572 H12.19047619047619 ZM18.285714285714285 103.61904761904762 H24.38095238095238 V109.71428571428572 H18.285714285714285 ZM24.38095238095238 103.61904761904762 H30.476190476190474 V109.71428571428572 H24.38095238095238 ZM36.57142857142857 103.61904761904762 H42.666666666666664 V109.71428571428572 H36.57142857142857 ZM54.857142857142854 103.61904761904762 H60.95238095238095 V109.71428571428572 H54.857142857142854 ZM60.95238095238095 103.61904761904762 H67.04761904761904 V109.71428571428572 H60.95238095238095 ZM67.04761904761904 103.61904761904762 H73.14285714285714 V109.71428571428572 H67.04761904761904 ZM73.14285714285714 103.61904761904762 H79.23809523809524 V109.71428571428572 H73.14285714285714 ZM85.33333333333333 103.61904761904762 H91.42857142857142 V109.71428571428572 H85.33333333333333 ZM91.42857142857142 103.61904761904762 H97.52380952380952 V109.71428571428572 H91.42857142857142 ZM97.52380952380952 103.61904761904762 H103.61904761904762 V109.71428571428572 H97.52380952380952 ZM109.71428571428571 103.61904761904762 H115.8095238095238 V109.71428571428572 H109.71428571428571 ZM115.8095238095238 103.61904761904762 H121.9047619047619 V109.71428571428572 H115.8095238095238 ZM0 109.71428571428571 H6.095238095238095 V115.8095238095238 H0 ZM12.19047619047619 109.71428571428571 H18.285714285714285 V115.8095238095238 H12.19047619047619 ZM18.285714285714285 109.71428571428571 H24.38095238095238 V115.8095238095238 H18.285714285714285 ZM24.38095238095238 109.71428571428571 H30.476190476190474 V115.8095238095238 H24.38095238095238 ZM36.57142857142857 109.71428571428571 H42.666666666666664 V115.8095238095238 H36.57142857142857 ZM48.76190476190476 109.71428571428571 H54.857142857142854 V115.8095238095238 H48.76190476190476 ZM60.95238095238095 109.71428571428571 H67.04761904761904 V115.8095238095238 H60.95238095238095 ZM73.14285714285714 109.71428571428571 H79.23809523809524 V115.8095238095238 H73.14285714285714 ZM85.33333333333333 109.71428571428571 H91.42857142857142 V115.8095238095238 H85.33333333333333 ZM97.52380952380952 109.71428571428571 H103.61904761904762 V115.8095238095238 H97.52380952380952 ZM109.71428571428571 109.71428571428571 H115.8095238095238 V115.8095238095238 H109.71428571428571 ZM121.9047619047619 109.71428571428571 H128 V115.8095238095238 H121.9047619047619 ZM0 115.8095238095238 H6.095238095238095 V121.9047619047619 H0 ZM36.57142857142857 115.8095238095238 H42.666666666666664 V121.9047619047619 H36.57142857142857 ZM54.857142857142854 115.8095238095238 H60.95238095238095 V121.9047619047619 H54.857142857142854 ZM67.04761904761904 115.8095238095238 H73.14285714285714 V121.9047619047619 H67.04761904761904 ZM97.52380952380952 115.8095238095238 H103.61904761904762 V121.9047619047619 H97.52380952380952 ZM115.8095238095238 115.8095238095238 H121.9047619047619 V121.9047619047619 H115.8095238095238 ZM0 121.9047619047619 H6.095238095238095 V128 H0 ZM6.095238095238095 121.9047619047619 H12.19047619047619 V128 H6.095238095238095 ZM12.19047619047619 121.9047619047619 H18.285714285714285 V128 H12.19047619047619 ZM18.285714285714285 121.9047619047619 H24.38095238095238 V128 H18.285714285714285 ZM24.38095238095238 121.9047619047619 H30.476190476190474 V128 H24.38095238095238 ZM30.476190476190474 121.9047619047619 H36.57142857142857 V128 H30.476190476190474 ZM36.57142857142857 121.9047619047619 H42.666666666666664 V128 H36.57142857142857 ZM48.76190476190476 121.9047619047619 H54.857142857142854 V128 H48.76190476190476 ZM67.04761904761904 121.9047619047619 H73.14285714285714 V128 H67.04761904761904 ZM73.14285714285714 121.9047619047619 H79.23809523809524 V128 H73.14285714285714 ZM91.42857142857142 121.9047619047619 H97.52380952380952 V128 H91.42857142857142 ZM115.8095238095238 121.9047619047619 H121.9047619047619 V128 H115.8095238095238 ZM121.9047619047619 121.9047619047619 H128 V128 H121.9047619047619 Z"/></svg>